PathFileType	4	(X/Y/Z)	c:\Git\powerlifing_model_clean\simulations\HC835B\Session1\HC835B_OGW_0006\marker_experimental.trc
DataRate	CameraRate	NumFrames	NumMarkers	Units	OrigDataRate	OrigDataStartFrame	OrigNumFrames
240.000000	240.000000	4	38	mm	240.000000	324	433
Frame#	Time	RPSI			LPSI			RASI			LASI			RTH1			RTH2			RTH3			RTH4			RSK1			RSK2			RSK3			RSK4			RCAL1			RCAL2			RCAL3			RST			RPT			RTN			RFMB			RSMB			RVMB			RFMH			RSMH			RVMH			RPM			LTH1			LTH2			LTH3			LTH4			LSK1			LSK2			LSK3			LSK4			LCAL1			LCAL2			LCAL3			LFMH			LVMH			
		X1	Y1	Z1	X2	Y2	Z2	X3	Y3	Z3	X4	Y4	Z4	X5	Y5	Z5	X6	Y6	Z6	X7	Y7	Z7	X8	Y8	Z8	X9	Y9	Z9	X10	Y10	Z10	X11	Y11	Z11	X12	Y12	Z12	X13	Y13	Z13	X14	Y14	Z14	X15	Y15	Z15	X16	Y16	Z16	X17	Y17	Z17	X18	Y18	Z18	X19	Y19	Z19	X20	Y20	Z20	X21	Y21	Z21	X22	Y22	Z22	X23	Y23	Z23	X24	Y24	Z24	X25	Y25	Z25	X26	Y26	Z26	X27	Y27	Z27	X28	Y28	Z28	X29	Y29	Z29	X30	Y30	Z30	X31	Y31	Z31	X32	Y32	Z32	X33	Y33	Z33	X34	Y34	Z34	X35	Y35	Z35	X36	Y36	Z36	X37	Y37	Z37	X38	Y38	Z38	

325	1.35	415.8523559570314	1141.479125976563	-403.1185302734376	525.5636596679689	1135.875610351563	-406.0599670410157	360.9235534667969	1106.042846679688	-190.4636840820313	607.3743286132814	1097.943969726563	-201.0349121093751	294.5024108886719	824.4746093750002	-237.1659393310547	308.2199096679688	819.2414550781252	-177.2911224365235	311.1566772460938	746.5964355468751	-207.0189666748047	335.2937622070313	741.7835693359376	-153.5193023681641	373.1293640136719	296.5779418945313	-277.2900695800782	370.6011657714844	280.6921691894532	-217.7816772460938	379.7908935546876	240.2909698486329	-262.4833374023438	390.3225402832032	226.6659088134766	-204.4470672607422	453.4666137695314	94.9781951904297	-319.2380676269532	482.9880371093751	57.05266571044923	-307.1218261718751	419.2950744628907	57.03093719482423	-318.2028503417969	489.3032836914064	74.21089172363283	-238.7251281738282	389.2936401367189	70.58653259277345	-261.8214111328126	470.2479858398439	95.69664764404298	-184.6969757080078	462.9461975097657	80.85046386718751	-152.647201538086	413.6054077148439	104.1132965087891	-150.4102172851563	373.4261169433594	47.16420364379884	-218.8986511230469	459.513397216797	54.84987640380861	-97.81364440917972	404.3379516601564	69.66616058349611	-90.66611480712892	349.0598449707032	44.13309860229493	-141.7206420898438	409.400115966797	60.55367660522462	-32.04582977294923	688.2750244140626	818.453796386719	-228.7169952392579	699.8385620117189	825.959167480469	-170.5445556640625	698.5978393554689	746.3336791992189	-185.9859313964844	694.1665039062501	752.8070678710939	-125.4313278198242	645.9249267578126	429.6504211425782	-375.8731384277344	660.2986450195314	382.6940917968751	-355.0644531250001	643.4721679687501	379.4757080078126	-401.9828491210939	640.9805908203126	330.9148559570313	-373.4972229003907	566.2874145507814	322.4525756835938	-522.5354614257814	587.7706298828126	298.9624328613282	-558.5540161132814	531.1499023437501	297.0171203613282	-542.3565673828126	560.0681762695314	124.7723236083985	-408.3172302246095	648.3911743164064	133.9833679199219	-477.0519104003907	
326	1.354166666666667	415.6666870117189	1142.813720703125	-396.9550170898439	525.5679321289064	1137.530517578125	-399.9703369140626	360.4555969238282	1107.230712890625	-184.5356750488282	606.7227172851564	1099.86181640625	-194.8210754394532	294.3135681152344	825.3759765625002	-233.8619842529297	307.9303894042969	819.3541259765627	-173.9673309326172	310.9558105468751	747.0068969726564	-204.3698883056641	334.8119506835938	741.3079223632814	-151.5552978515625	373.1303405761719	296.9117736816407	-277.2713012695313	370.3987121582032	280.9755859375001	-217.7523193359376	379.7700805664063	240.6713256835938	-262.5185852050782	390.0488891601564	226.9341430664063	-204.4544219970704	453.4654541015626	95.15618133544923	-319.2009887695313	482.992156982422	57.22374725341798	-307.0855712890626	419.2774658203126	57.16403198242189	-318.1646118164063	489.280242919922	74.44821929931642	-238.6453399658204	389.2825317382814	70.87185668945314	-261.7848815917969	470.1705322265626	95.88751220703126	-184.6541442871094	462.8399353027345	80.93765258789064	-152.6252136230469	413.4989318847657	104.1873626708985	-150.3736267089844	373.4208679199219	47.23244094848634	-218.8699798583985	459.6378784179689	55.15243148803712	-97.59693145751956	404.2824096679689	69.65756988525392	-90.66309356689455	349.1323547363282	44.01631927490235	-141.7083740234375	409.4099121093751	60.5375099182129	-32.03242874145509	688.4965209960939	821.1948852539065	-221.315658569336	699.7000122070314	828.6370239257815	-161.8300170898438	698.5445556640626	748.8456420898439	-176.5353698730469	693.8905029296876	755.9149169921876	-116.1089324951172	645.3173217773439	428.7294006347657	-362.4860534667969	659.6923828125001	382.0962524414063	-340.9288635253907	642.7957763671876	378.1813964843751	-387.7976989746095	640.2876586914064	330.0304870605469	-358.5617980957032	565.4014282226564	319.0325622558594	-507.4719238281251	586.9689331054689	295.0236206054688	-543.1443481445314	530.3816528320314	293.2931213378907	-526.9780883789064	559.6209106445314	123.4782333374024	-389.7745666503907	647.9838256835939	131.6827239990235	-458.5773925781251	
327	1.358333333333333	415.5454101562501	1144.2412109375	-390.7969360351564	525.4339599609376	1138.841674804688	-393.6974182128907	360.0452880859376	1108.355224609375	-178.6880645751953	606.0584716796876	1101.774536132813	-188.552230834961	294.1482238769532	826.0447998046877	-230.4239654541016	307.6866760253907	819.4417724609377	-170.6702117919922	310.5836791992188	747.1417846679689	-201.6925201416016	334.5724487304688	741.2335205078126	-148.7470245361328	373.1831665039063	297.3056945800782	-277.2152099609376	370.2290649414063	281.2130126953126	-217.7384948730469	379.6598510742188	241.2888488769532	-262.4465026855469	389.763153076172	227.1964721679688	-204.4236602783204	453.4615173339845	95.31234741210939	-319.1397705078126	483.0353393554689	57.39356994628908	-307.0365295410157	419.396209716797	57.29551696777345	-318.0705261230469	489.2156982421876	74.57069396972658	-238.598373413086	389.2364501953126	70.96636962890626	-261.7769775390626	470.0778198242189	95.96983337402345	-184.6502838134766	462.7672729492189	81.04393768310548	-152.5947418212891	413.3843078613282	104.238639831543	-150.3183135986328	373.4209594726563	47.25605010986329	-218.8788299560547	459.6522827148439	55.20544433593751	-97.5955505371094	404.2442932128907	69.65264892578126	-90.63929748535158	349.0093688964844	44.08244705200196	-141.7491302490235	409.311737060547	60.57213973999025	-32.04686737060548	688.6667480468751	823.098815917969	-212.7840118408204	699.2422485351564	831.3643188476565	-152.1052856445313	698.4054565429689	751.3235473632814	-167.1587371826172	693.5070190429689	758.9392089843751	-106.8002243041992	644.8118896484376	427.7235717773439	-349.2969055175782	658.9889526367189	381.3659667968751	-326.8482360839844	642.0982055664064	376.7042236328126	-373.5941772460938	639.5379638671876	328.9634399414063	-343.5757751464844	564.6160888671876	315.4098815917969	-492.5777893066407	586.1379394531251	290.8324279785157	-527.6559448242189	529.0745849609376	289.2653503417969	-511.6100463867189	559.2006225585939	122.147705078125	-371.0097045898438	647.5568847656251	129.2504272460938	-439.9954528808595	
328	1.3625	415.4078063964845	1145.495361328125	-384.5993652343751	525.3698730468751	1140.230712890625	-387.7648925781251	359.6503601074219	1109.401611328125	-172.8115386962891	605.3706665039064	1103.695678710938	-182.2558288574219	293.9065551757813	826.9276123046877	-227.0587005615235	306.7091979980469	819.410339355469	-167.9567565917969	310.4878540039063	747.5244750976564	-199.0382385253907	334.4275817871094	741.3615112304689	-146.0498046875	373.2242431640626	297.7160034179688	-277.1432495117188	370.0826721191407	281.6394348144532	-217.7109680175782	379.7011108398438	241.4800567626954	-262.4933471679688	389.4675292968751	227.5186614990235	-204.3777008056641	452.0817871093751	94.36978149414064	-319.9379272460938	483.0509643554689	57.54555511474611	-306.9745178222657	419.409149169922	57.49074172973634	-318.0197448730469	489.2261657714845	74.74768829345705	-238.4917755126954	389.2454833984376	71.0742874145508	-261.7523193359376	470.0312805175782	96.09275817871097	-184.552490234375	462.6953125000001	81.10758209228517	-152.5654754638672	413.2691040039064	104.2871246337891	-150.2793426513672	373.4401855468751	47.31414413452149	-218.8588256835938	459.5958862304689	55.23936080932619	-97.54068756103518	404.1953430175782	69.75801086425783	-90.74471282958986	349.2894287109376	43.58515167236329	-141.620590209961	409.2579040527345	60.55031967163087	-32.0229606628418	688.5938720703126	824.7939453125002	-204.385971069336	699.5890502929689	834.0403442382815	-144.1823883056641	698.2441406250001	753.6901245117189	-157.8287200927735	693.1286621093751	761.9166259765626	-97.57781982421878	644.2276000976564	426.6110839843751	-335.9185485839844	658.3652954101564	380.5758361816407	-312.6912231445313	641.3762817382814	375.0032958984376	-359.3615417480469	638.8728637695314	327.9046325683594	-328.5342712402344	563.7717285156251	311.7227172851563	-477.452362060547	585.2783813476564	286.4108581542969	-511.9479370117189	528.7811279296876	285.0211181640626	-495.6164855957032	558.8160400390626	120.7277908325196	-352.1240234375001	647.1201782226564	126.7270965576172	-421.2028198242189	
